<svg id="Layer_1" data-name="Layer 1" xmlns="http://www.w3.org/2000/svg" viewBox="0 0 376.55 341.71"><defs><style>.cls-1{fill:#868686;}</style></defs><title>Artboard 1 copy</title><path d="M24.42,278.44V246.25H42.35V252h-11v7.06h7.59v5.22H31.33v8.07h11v6Z"/><path d="M58.11,252.15v26.29H51.2V252.15h-7v-5.9H65v5.9Z"/><path d="M82.86,278.44V265.53h-8v12.91H67.92V246.25h6.91v13.34h8V246.25h6.91v32.19Z"/><path d="M94.41,278.44V246.25h6.91v32.19Z"/><path d="M116.26,279.26c-6.62,0-10.59-4.11-10.59-9.86V255.29c0-5.7,4-9.81,10.59-9.81s10.58,4.11,10.58,9.81V269.4C126.84,275.15,122.93,279.26,116.26,279.26Zm3.62-24.36a3.6,3.6,0,1,0-7.2,0v14.89a3.6,3.6,0,1,0,7.2,0Z"/><path d="M142.8,266.5h-4.74v11.94h-6.91V246.25H142.8c5.41,0,8.27,3.14,8.27,8v4.35C151.06,263.36,148.21,266.5,142.8,266.5Zm1.64-12.13c0-1.74-.68-2.71-2.47-2.71h-3.92v9.71H142c1.79,0,2.47-1,2.47-2.71Z"/><path d="M154.64,278.44V246.25h6.91v32.19Z"/><path d="M179.92,278.44l-1.35-6.38H171.9l-1.35,6.38h-6.48l7.54-32.19h7.73l7.49,32.19Zm-4.54-23.25-2.47,11.75h4.74Z"/><path d="M208.2,279.26c-6.82,0-10.78-4.4-10.78-10V255.38c0-5.56,4-10,10.78-10s10.15,4,10.15,9.38v3.14h-6.19v-3c0-2.22-1.31-3.67-3.87-3.67s-3.87,1.5-3.87,3.58v15c0,2,1.31,3.53,3.87,3.53s3.87-1.45,3.87-3.67v-3h6.19v3.14C218.35,275.25,214.92,279.26,208.2,279.26Z"/><path d="M232.37,279.26c-6.62,0-10.58-4.11-10.58-9.86V255.29c0-5.7,4-9.81,10.58-9.81S243,249.58,243,255.29V269.4C243,275.15,239,279.26,232.37,279.26ZM236,254.9a3.6,3.6,0,1,0-7.2,0v14.89a3.6,3.6,0,1,0,7.2,0Z"/><path d="M259.48,278.44h-6.57l-8.27-32.19h7.11l4.69,21.9,4.69-21.9h6.77Z"/><path d="M270.36,278.44V246.25h6.91v32.19Z"/><path d="M292.69,278.44H282V246.25h10.73c6.67,0,10.25,4.3,10.25,9.67v13.24C302.94,274.57,299.36,278.44,292.69,278.44ZM296,256.06c0-2.56-1.21-4.06-3.87-4.06h-3.29v20.69h3.29c2.66,0,3.87-1.5,3.87-4.06Z"/><path d="M306.37,266.11v-4.49H318v4.49Z"/><path d="M322.56,278.44V249.15a2.62,2.62,0,0,0,2.85-2.9h3.53v32.19Z"/><path d="M344.08,279.26c-6.14,0-9.47-3.92-9.47-8.36v-1.5h5.61V270c0,2.56,1.35,3.82,3.92,3.82s3.72-1.5,3.72-3.77v-6.48a6.92,6.92,0,0,1-6,2.95c-4.69,0-7.35-3-7.35-7.06v-4.69c0-5.56,3.67-9.28,9.76-9.28,6.33,0,9.86,3.72,9.86,9.33v15.08C354.13,275.59,350.17,279.26,344.08,279.26Zm3.77-24.94a3.28,3.28,0,0,0-3.58-3.43c-2.27,0-3.53,1.4-3.53,3.24v4.78c0,1.84,1.11,3.24,3.53,3.24s3.58-1.45,3.58-3.24Z"/><path class="cls-1" d="M86.71,316.31c-2.33,0-3.21-1.61-3.21-4.1v-4.38a2.32,2.32,0,0,0-2.37-2.61H78v10.92H72.3V289.41h9.64c4.34,0,6.95,2.49,6.95,6.34v2.89a4.26,4.26,0,0,1-3.45,4.46A4.5,4.5,0,0,1,89,307.52v4.38a3.39,3.39,0,0,0,1.13,2.73v1.69Zm-3.37-20.24c0-1.33-.56-2.17-2-2.17H78v7.35h3a2.07,2.07,0,0,0,2.29-2.37Z"/><path class="cls-1" d="M92.62,316.15V289.41h14.9v4.82H98.36v5.86h6.3v4.34h-6.3v6.71h9.16v5Z"/><path class="cls-1" d="M118.24,316.83c-5.26,0-8.59-3-8.59-7.59v-1.37h5.26v.88c0,2.25,1.13,3.45,3.21,3.45a2.74,2.74,0,0,0,3.05-3c0-1.93-1.53-3.09-4.62-4.7s-6.63-3.85-6.63-8,2.93-7.79,8.39-7.79c4.9,0,8.15,3.29,8.15,7.55v1.08h-5.18v-.84a2.9,2.9,0,0,0-3-3.21,2.54,2.54,0,0,0-2.77,2.65c0,1.89,1.53,2.93,4.94,4.7,3.73,2,6.34,4.14,6.34,8C126.8,313.06,123.58,316.83,118.24,316.83Z"/><path class="cls-1" d="M139.49,306.23h-3.94v9.92h-5.74V289.41h9.68c4.5,0,6.87,2.61,6.87,6.63v3.61C146.36,303.62,144,306.23,139.49,306.23Zm1.36-10.08c0-1.45-.56-2.25-2-2.25h-3.25V302h3.25c1.49,0,2-.8,2-2.25Z"/><path class="cls-1" d="M157.84,316.83c-5.5,0-8.79-3.41-8.79-8.19V296.92c0-4.74,3.29-8.15,8.79-8.15s8.79,3.41,8.79,8.15v11.73C166.64,313.42,163.39,316.83,157.84,316.83Zm3-20.24a3,3,0,1,0-6,0V309a3,3,0,1,0,6,0Z"/><path class="cls-1" d="M183.67,316.15l-5.9-10.72-2.29-4.38v15.1h-5.26V289.41H175l5.74,11,2.17,4.38V289.41h5.18v26.75Z"/><path class="cls-1" d="M199.74,316.83c-5.26,0-8.59-3-8.59-7.59v-1.37h5.26v.88c0,2.25,1.13,3.45,3.21,3.45a2.74,2.74,0,0,0,3.05-3c0-1.93-1.53-3.09-4.62-4.7s-6.63-3.85-6.63-8,2.93-7.79,8.39-7.79c4.9,0,8.15,3.29,8.15,7.55v1.08h-5.18v-.84a2.9,2.9,0,0,0-3-3.21A2.54,2.54,0,0,0,197,296c0,1.89,1.53,2.93,4.94,4.7,3.73,2,6.34,4.14,6.34,8C208.29,313.06,205.08,316.83,199.74,316.83Z"/><path class="cls-1" d="M211.3,316.15V289.41h14.9v4.82H217v5.86h6.3v4.34H217v6.71h9.16v5Z"/><path class="cls-1" d="M246.29,294.31v21.85h-5.74V294.31h-5.78v-4.9H252v4.9Z"/><path class="cls-1" d="M254.44,316.15V289.41h14.9v4.82h-9.16v5.86h6.3v4.34h-6.3v6.71h9.16v5Z"/><path class="cls-1" d="M283.76,316.15l-1.13-5.3h-5.54l-1.13,5.3h-5.38l6.26-26.75h6.43l6.22,26.75ZM280,296.84l-2,9.76h3.94Z"/><path class="cls-1" d="M309.91,316.15v-19l-1.33,6.06-3.21,12.89h-4.3L298,303.26l-1.29-6.06v19h-5.14V289.41h7.71L302.52,303l1,4.7,1-4.7,3.17-13.61h7.67v26.75Z"/><path d="M194.48,84.38a25,25,0,1,0,25,25A25,25,0,0,0,194.48,84.38Zm0,44.15a19.2,19.2,0,1,1,19.18-19.2A19.21,19.21,0,0,1,194.48,128.53Zm0-44.15a25,25,0,1,0,25,25A25,25,0,0,0,194.48,84.38Zm0,44.15a19.2,19.2,0,1,1,19.18-19.2A19.21,19.21,0,0,1,194.48,128.53Zm0-44.15a25,25,0,1,0,25,25A25,25,0,0,0,194.48,84.38Zm0,44.15a19.2,19.2,0,1,1,19.18-19.2A19.21,19.21,0,0,1,194.48,128.53Zm0-44.15a25,25,0,1,0,25,25A25,25,0,0,0,194.48,84.38Zm0,44.15a19.2,19.2,0,1,1,19.18-19.2A19.21,19.21,0,0,1,194.48,128.53Zm0-44.15a25,25,0,1,0,25,25A25,25,0,0,0,194.48,84.38Zm0,44.15a19.2,19.2,0,1,1,19.18-19.2A19.21,19.21,0,0,1,194.48,128.53Zm0-44.15a25,25,0,1,0,25,25A25,25,0,0,0,194.48,84.38Zm0,44.15a19.2,19.2,0,1,1,19.18-19.2A19.21,19.21,0,0,1,194.48,128.53Zm0-44.15a25,25,0,1,0,25,25A25,25,0,0,0,194.48,84.38Zm0,44.15a19.2,19.2,0,1,1,19.18-19.2A19.21,19.21,0,0,1,194.48,128.53Zm0-44.15a25,25,0,1,0,25,25A25,25,0,0,0,194.48,84.38Zm0,44.15a19.2,19.2,0,1,1,19.18-19.2A19.21,19.21,0,0,1,194.48,128.53Zm0-95.5-66,22V102.8a101.81,101.81,0,0,0,66,95.17,101.84,101.84,0,0,0,66-95.17V55Zm26.7,39.9,3.09-3.09,9.68,9.7-3.07,3.09-3.32-3.32-8.13,8.16-3.09-3.09,8.16-8.16ZM187.62,60.34h13.7V64.7h-4.66V76.22H192.3V64.7h-4.69Zm-22.93,9.5,3.07,3.09-3.29,3.29,8.16,8.16-3.09,3.09-8.16-8.16-3.29,3.32L155,79.54ZM149.85,116.2h-4.36v-13.7h4.36v4.66h11.53v4.36H149.85Zm17.91,29.54-3.07,3.09-9.7-9.7,3.09-3.09,3.29,3.32,8.16-8.16,3.09,3.09-8.16,8.16Zm33.56,12.59h-13.7V154h4.69V142.44h4.36V154h4.66Zm-6.84-19.68a29.31,29.31,0,1,1,29.31-29.31A29.35,29.35,0,0,1,194.48,138.64Zm29.79,10.18-3.09-3.09,3.32-3.29-8.16-8.16,3.09-3.09,8.13,8.16,3.32-3.32,3.07,3.09Zm19.2-32.63h-4.38v-4.69H227.57v-4.36h11.53v-4.66h4.38Zm-49-31.82a25,25,0,1,0,25,25A25,25,0,0,0,194.48,84.38Zm0,44.15a19.2,19.2,0,1,1,19.18-19.2A19.21,19.21,0,0,1,194.48,128.53Zm0-44.15a25,25,0,1,0,25,25A25,25,0,0,0,194.48,84.38Zm0,44.15a19.2,19.2,0,1,1,19.18-19.2A19.21,19.21,0,0,1,194.48,128.53Zm0-44.15a25,25,0,1,0,25,25A25,25,0,0,0,194.48,84.38Zm0,44.15a19.2,19.2,0,1,1,19.18-19.2A19.21,19.21,0,0,1,194.48,128.53Zm0-44.15a25,25,0,1,0,25,25A25,25,0,0,0,194.48,84.38Zm0,44.15a19.2,19.2,0,1,1,19.18-19.2A19.21,19.21,0,0,1,194.48,128.53Zm0-44.15a25,25,0,1,0,25,25A25,25,0,0,0,194.48,84.38Zm0,44.15a19.2,19.2,0,1,1,19.18-19.2A19.21,19.21,0,0,1,194.48,128.53Zm0-44.15a25,25,0,1,0,25,25A25,25,0,0,0,194.48,84.38Zm0,44.15a19.2,19.2,0,1,1,19.18-19.2A19.21,19.21,0,0,1,194.48,128.53Zm0-44.15a25,25,0,1,0,25,25A25,25,0,0,0,194.48,84.38Zm0,44.15a19.2,19.2,0,1,1,19.18-19.2A19.21,19.21,0,0,1,194.48,128.53Zm0-44.15a25,25,0,1,0,25,25A25,25,0,0,0,194.48,84.38Zm0,44.15a19.2,19.2,0,1,1,19.18-19.2A19.21,19.21,0,0,1,194.48,128.53Zm0-44.15a25,25,0,1,0,25,25A25,25,0,0,0,194.48,84.38Zm0,44.15a19.2,19.2,0,1,1,19.18-19.2A19.21,19.21,0,0,1,194.48,128.53Z"/><path d="M194.48,19.73,117.43,45.45V101.2a117,117,0,0,0,77.06,110.09,117,117,0,0,0,77-110.09V45.45Zm71,83.06A106.88,106.88,0,0,1,195.34,203l-.86.33-.86-.33A106.81,106.81,0,0,1,123.45,102.8V51.4l71-23.68,71,23.68Z"/></svg>