<svg id="Layer_1" data-name="Layer 1" xmlns="http://www.w3.org/2000/svg" viewBox="0 0 1000 1000"><defs><style>.cls-1{fill:#fa7f1c;}</style></defs><title>Artboard 9 copy 6</title><path class="cls-1" d="M522.93,302.42A13.44,13.44,0,1,1,536.37,289,13.44,13.44,0,0,1,522.93,302.42Zm0,129.86a13.44,13.44,0,1,0-13.44-13.44A13.44,13.44,0,0,0,522.93,432.28Zm0,32.46a13.44,13.44,0,1,0-13.44-13.44A13.44,13.44,0,0,0,522.93,464.73Zm0-64.92a13.44,13.44,0,1,0-13.44-13.44A13.44,13.44,0,0,0,522.93,399.81Zm0-32.47a13.44,13.44,0,1,0-13.44-13.44A13.44,13.44,0,0,0,522.93,367.33Zm-32.45,103a13.3,13.3,0,0,0-8.3,3l4.25,18.26h9.85s2.23-.29,5.56-.66a13.3,13.3,0,0,0,2.08-7.1A13.45,13.45,0,0,0,490.48,470.33Zm0-103A13.44,13.44,0,1,0,477,353.89,13.44,13.44,0,0,0,490.48,367.33Zm0,32.47A13.44,13.44,0,1,0,477,386.37,13.44,13.44,0,0,0,490.48,399.81ZM425.61,275.54A13.44,13.44,0,1,0,439.05,289,13.44,13.44,0,0,0,425.61,275.54Zm64.86,0A13.44,13.44,0,1,0,503.92,289,13.44,13.44,0,0,0,490.48,275.54Zm32.45,59.35a13.44,13.44,0,1,0-13.44-13.44A13.45,13.45,0,0,0,522.93,334.89ZM555.35,308a13.44,13.44,0,1,0,13.44,13.45A13.43,13.43,0,0,0,555.35,308Zm0-32.47A13.44,13.44,0,1,0,568.79,289,13.44,13.44,0,0,0,555.35,275.54ZM534.52,490.46a13.3,13.3,0,0,0,1.85-6.69,13.44,13.44,0,0,0-26.88,0,13.29,13.29,0,0,0,1.6,6.23c4.31-.35,8.88-.63,12.73-.63A53.43,53.43,0,0,1,534.52,490.46ZM425.61,367.33a13.44,13.44,0,1,0-13.44-13.44A13.44,13.44,0,0,0,425.61,367.33Zm-13.43-45.88A13.44,13.44,0,1,0,425.61,308,13.44,13.44,0,0,0,412.18,321.45ZM555.35,432.28a13.44,13.44,0,1,0-13.44-13.44A13.44,13.44,0,0,0,555.35,432.28Zm0,32.46a13.44,13.44,0,1,0-13.44-13.44A13.44,13.44,0,0,0,555.35,464.73Zm0,32.47a13.44,13.44,0,1,0-13.44-13.44A13.44,13.44,0,0,0,555.35,497.21Zm-64.88-64.93A13.44,13.44,0,1,0,477,418.84,13.44,13.44,0,0,0,490.48,432.28Zm64.88-64.94a13.44,13.44,0,1,0-13.44-13.44A13.44,13.44,0,0,0,555.35,367.33Zm0,32.47a13.44,13.44,0,1,0-13.44-13.44A13.44,13.44,0,0,0,555.35,399.81ZM477,321.45A13.44,13.44,0,1,0,490.48,308,13.46,13.46,0,0,0,477,321.45ZM587.8,567.71a13.43,13.43,0,1,0,13.43,13.43A13.43,13.43,0,0,0,587.8,567.71Zm0-5.59a13.44,13.44,0,1,0-13.44-13.44A13.44,13.44,0,0,0,587.8,562.12ZM458.05,275.54A13.44,13.44,0,1,0,471.49,289,13.44,13.44,0,0,0,458.05,275.54ZM587.8,432.28a13.44,13.44,0,1,0-13.44-13.44A13.44,13.44,0,0,0,587.8,432.28Zm0,64.93a13.44,13.44,0,1,0-13.44-13.44A13.44,13.44,0,0,0,587.8,497.21Zm0-32.47a13.44,13.44,0,1,0-13.44-13.44A13.44,13.44,0,0,0,587.8,464.73Zm32.43-32.46a13.44,13.44,0,1,0-13.44-13.44A13.44,13.44,0,0,0,620.23,432.28Zm0,32.46a13.44,13.44,0,1,0-13.44-13.44A13.44,13.44,0,0,0,620.23,464.73Zm0-64.92a13.44,13.44,0,1,0-13.44-13.44A13.44,13.44,0,0,0,620.23,399.81Zm0-32.47a13.44,13.44,0,1,0-13.44-13.44A13.44,13.44,0,0,0,620.23,367.33ZM587.8,502.79a13.43,13.43,0,1,0,13.43,13.43A13.43,13.43,0,0,0,587.8,502.79ZM393.18,334.89a13.44,13.44,0,1,0-13.44-13.44A13.46,13.46,0,0,0,393.18,334.89ZM406.62,289a13.44,13.44,0,1,0-13.44,13.44A13.44,13.44,0,0,0,406.62,289Zm-13.44,78.36a13.44,13.44,0,1,0-13.44-13.44A13.44,13.44,0,0,0,393.18,367.33Zm64.87,0a13.44,13.44,0,1,0-13.44-13.44A13.44,13.44,0,0,0,458.05,367.33ZM464.66,398A13.41,13.41,0,1,0,445,383.44h16.32Zm188,326.43A13.43,13.43,0,1,0,639.23,711,13.43,13.43,0,0,0,652.67,724.44ZM393.18,372.93a13.43,13.43,0,0,0-13.1,10.52h26.2A13.43,13.43,0,0,0,393.18,372.93Zm32.43,0a13.43,13.43,0,0,0-13.1,10.52h26.2A13.43,13.43,0,0,0,425.61,372.93Zm162.18-5.59a13.44,13.44,0,1,0-13.44-13.44A13.44,13.44,0,0,0,587.8,367.33Zm0,32.47a13.44,13.44,0,1,0-13.44-13.44A13.44,13.44,0,0,0,587.8,399.81Zm-227-26.87a13.43,13.43,0,0,0-13.1,10.51h26.19A13.44,13.44,0,0,0,360.75,372.94Zm356.77,26.87a13.44,13.44,0,1,0-13.44-13.44A13.44,13.44,0,0,0,717.52,399.81Zm0,135.43A13.44,13.44,0,1,0,731,548.68,13.44,13.44,0,0,0,717.52,535.24Zm0-265.28a13.45,13.45,0,1,0-13.45-13.45A13.45,13.45,0,0,0,717.52,270ZM750,567.71a13.43,13.43,0,1,0,13.43,13.43A13.43,13.43,0,0,0,750,567.71Zm0-64.92a13.43,13.43,0,1,0,13.43,13.43A13.43,13.43,0,0,0,750,502.79ZM295.88,372.93a13.43,13.43,0,0,0-13.1,10.52H309A13.43,13.43,0,0,0,295.88,372.93ZM620.23,497.21a13.44,13.44,0,1,0-13.44-13.44A13.44,13.44,0,0,0,620.23,497.21Zm97.29,70.5A13.43,13.43,0,1,0,731,581.14,13.43,13.43,0,0,0,717.52,567.71ZM750,497.21a13.44,13.44,0,1,0-13.44-13.44A13.44,13.44,0,0,0,750,497.21Zm-32.44-59.35A13.44,13.44,0,1,0,731,451.31,13.45,13.45,0,0,0,717.52,437.86Zm0,91.8a13.43,13.43,0,1,0-13.43-13.43A13.43,13.43,0,0,0,717.52,529.66Zm0-59.34A13.44,13.44,0,1,0,731,483.77,13.44,13.44,0,0,0,717.52,470.33Zm97.32-5.59a13.44,13.44,0,1,0-13.44-13.44A13.44,13.44,0,0,0,814.84,464.73Zm-97.32-97.4a13.44,13.44,0,1,0-13.44-13.44A13.44,13.44,0,0,0,717.52,367.33Zm97.32,129.87a13.44,13.44,0,1,0-13.44-13.44A13.44,13.44,0,0,0,814.84,497.21Zm0-64.93a13.44,13.44,0,1,0-13.44-13.44A13.44,13.44,0,0,0,814.84,432.28Zm32.43,0a13.44,13.44,0,1,0-13.44-13.44A13.44,13.44,0,0,0,847.27,432.28Zm0,64.93a13.44,13.44,0,1,0-13.44-13.44A13.44,13.44,0,0,0,847.27,497.21ZM750,432.28a13.44,13.44,0,1,0-13.44-13.44A13.44,13.44,0,0,0,750,432.28Zm0-64.94a13.44,13.44,0,1,0-13.44-13.44A13.44,13.44,0,0,0,750,367.33Zm64.88,265.31a13.43,13.43,0,1,0,13.43,13.43A13.43,13.43,0,0,0,814.84,632.65ZM750,464.73a13.44,13.44,0,1,0-13.44-13.44A13.44,13.44,0,0,0,750,464.73Zm0-64.92a13.44,13.44,0,1,0-13.44-13.44A13.44,13.44,0,0,0,750,399.81Zm0,162.31a13.44,13.44,0,1,0-13.44-13.44A13.44,13.44,0,0,0,750,562.12ZM652.67,270a13.45,13.45,0,1,0-13.45-13.45A13.45,13.45,0,0,0,652.67,270Zm0-32.47A13.44,13.44,0,1,0,639.23,224,13.44,13.44,0,0,0,652.67,237.49ZM698.54,289a13.44,13.44,0,1,0-13.44,13.44A13.44,13.44,0,0,0,698.54,289ZM685.1,432.28a13.44,13.44,0,1,0-13.44-13.44A13.44,13.44,0,0,0,685.1,432.28ZM652.67,659.51a13.43,13.43,0,1,0-10.87-21.28v15.69A13.39,13.39,0,0,0,652.67,659.51ZM685.1,308a13.44,13.44,0,1,0,13.45,13.45A13.44,13.44,0,0,0,685.1,308ZM606.79,711a13.43,13.43,0,1,0,13.43-13.43A13.43,13.43,0,0,0,606.79,711ZM328.3,372.93a13.43,13.43,0,0,0-13.1,10.52h26.2A13.43,13.43,0,0,0,328.3,372.93Zm0-5.59a13.44,13.44,0,1,0-13.42-13.42A13.44,13.44,0,0,0,328.3,367.33ZM574.36,711a13.43,13.43,0,1,0,13.43-13.43A13.43,13.43,0,0,0,574.36,711Zm-32.44,0a13.43,13.43,0,1,0,13.43-13.43A13.43,13.43,0,0,0,541.92,711ZM685.1,529.66a13.43,13.43,0,1,0-13.43-13.43A13.43,13.43,0,0,0,685.1,529.66Zm0-259.7a13.45,13.45,0,1,0-13.45-13.45A13.45,13.45,0,0,0,685.1,270Zm0,265.28a13.44,13.44,0,1,0,13.44,13.44A13.44,13.44,0,0,0,685.1,535.24Zm0,32.47a13.43,13.43,0,1,0,13.43,13.43A13.43,13.43,0,0,0,685.1,567.71ZM731,289a13.44,13.44,0,1,0-13.44,13.44A13.44,13.44,0,0,0,731,289Zm-13.44,19A13.44,13.44,0,1,0,731,321.45,13.45,13.45,0,0,0,717.52,308Zm0,124.27a13.44,13.44,0,1,0-13.44-13.44A13.44,13.44,0,0,0,717.52,432.28ZM685.1,399.81a13.44,13.44,0,1,0-13.44-13.44A13.44,13.44,0,0,0,685.1,399.81Zm0-32.47a13.44,13.44,0,1,0-13.44-13.44A13.44,13.44,0,0,0,685.1,367.33Zm0,70.52a13.44,13.44,0,1,0,13.45,13.45A13.44,13.44,0,0,0,685.1,437.86Zm0,32.47a13.44,13.44,0,1,0,13.44,13.44A13.44,13.44,0,0,0,685.1,470.33Zm-194.62-5.59A13.44,13.44,0,1,0,477,451.24l1.37,5.88A13.41,13.41,0,0,0,490.48,464.73ZM652.67,600.16a13.4,13.4,0,0,0-10.87,5.58v15.75a13.44,13.44,0,1,0,10.87-21.33ZM685.1,762.5a13.43,13.43,0,1,0,13.43,13.43A13.43,13.43,0,0,0,685.1,762.5Zm-32.43-97.41a13.4,13.4,0,0,0-10.87,5.58v15.75a13.44,13.44,0,1,0,10.87-21.33Zm0,129.88a13.44,13.44,0,1,0,13.44,13.44A13.44,13.44,0,0,0,652.67,795Zm0-5.6a13.43,13.43,0,1,0-13.43-13.43A13.43,13.43,0,0,0,652.67,789.37Zm0-59.32a13.44,13.44,0,1,0,13.44,13.44A13.44,13.44,0,0,0,652.67,730Zm32.43-70.53a13.43,13.43,0,1,0-13.43-13.43A13.43,13.43,0,0,0,685.1,659.51Zm0-59.35a13.45,13.45,0,1,0,13.45,13.45A13.45,13.45,0,0,0,685.1,600.16Zm0,124.27A13.43,13.43,0,1,0,671.66,711,13.43,13.43,0,0,0,685.1,724.44Zm0,5.61a13.44,13.44,0,1,0,13.44,13.44A13.44,13.44,0,0,0,685.1,730Zm0-65a13.45,13.45,0,1,0,13.45,13.45A13.45,13.45,0,0,0,685.1,665.09ZM587.8,789.37a13.43,13.43,0,1,0-13.43-13.43A13.43,13.43,0,0,0,587.8,789.37Zm-291.91-422a13.44,13.44,0,1,0-13.44-13.44A13.44,13.44,0,0,0,295.88,367.33ZM620.23,730a13.44,13.44,0,1,0,13.44,13.44A13.44,13.44,0,0,0,620.23,730Zm-64.87,0a13.44,13.44,0,1,0,13.44,13.44A13.44,13.44,0,0,0,555.35,730ZM295.88,334.89a13.44,13.44,0,1,0-13.44-13.44A13.46,13.46,0,0,0,295.88,334.89Zm32.42-32.47A13.44,13.44,0,1,0,314.86,289,13.44,13.44,0,0,0,328.3,302.42ZM587.8,795a13.44,13.44,0,1,0,13.44,13.44A13.44,13.44,0,0,0,587.8,795Zm32.43,0a13.44,13.44,0,1,0,13.44,13.44A13.44,13.44,0,0,0,620.23,795Zm0-5.6a13.43,13.43,0,1,0-13.43-13.43A13.43,13.43,0,0,0,620.23,789.37ZM587.8,730a13.44,13.44,0,1,0,13.44,13.44A13.44,13.44,0,0,0,587.8,730Zm129.72,0A13.44,13.44,0,1,0,731,743.48,13.44,13.44,0,0,0,717.52,730ZM847.27,600.16a13.45,13.45,0,1,0,13.45,13.45A13.45,13.45,0,0,0,847.27,600.16ZM814.84,724.44A13.43,13.43,0,1,0,801.41,711,13.43,13.43,0,0,0,814.84,724.44Zm0-59.35a13.45,13.45,0,1,0,13.45,13.45A13.45,13.45,0,0,0,814.84,665.09Zm0,65a13.44,13.44,0,1,0,13.44,13.44A13.44,13.44,0,0,0,814.84,730Zm-97.32-5.61A13.43,13.43,0,1,0,704.09,711,13.43,13.43,0,0,0,717.52,724.44Zm64.87-351.51a13.44,13.44,0,1,0,13.44,13.44A13.44,13.44,0,0,0,782.39,372.93Zm64.88,292.16a13.45,13.45,0,1,0,13.45,13.45A13.45,13.45,0,0,0,847.27,665.09Zm0-227.23a13.44,13.44,0,1,0,13.45,13.45A13.44,13.44,0,0,0,847.27,437.86Zm32.45-32.46a13.44,13.44,0,1,0,13.44,13.44A13.44,13.44,0,0,0,879.72,405.4ZM328.3,308a13.44,13.44,0,1,0,13.45,13.45A13.43,13.43,0,0,0,328.3,308Zm519,351.51a13.43,13.43,0,1,0-13.43-13.43A13.43,13.43,0,0,0,847.27,659.51ZM782.39,405.4a13.44,13.44,0,1,0,13.44,13.44A13.44,13.44,0,0,0,782.39,405.4Zm64.88,292.17A13.43,13.43,0,1,0,860.7,711,13.43,13.43,0,0,0,847.27,697.57ZM750,659.51a13.43,13.43,0,1,0-13.43-13.43A13.43,13.43,0,0,0,750,659.51Zm-32.44-59.35A13.45,13.45,0,1,0,731,613.62,13.45,13.45,0,0,0,717.52,600.16ZM750,665.09a13.45,13.45,0,1,0,13.45,13.45A13.45,13.45,0,0,0,750,665.09Zm-32.44-5.57a13.43,13.43,0,1,0-13.43-13.43A13.43,13.43,0,0,0,717.52,659.51Zm0,5.57A13.45,13.45,0,1,0,731,678.54,13.45,13.45,0,0,0,717.52,665.09Zm64.87-162.29a13.43,13.43,0,1,0,13.43,13.43A13.43,13.43,0,0,0,782.39,502.79Zm0-64.94a13.44,13.44,0,1,0,13.44,13.44A13.44,13.44,0,0,0,782.39,437.85Zm0,32.47a13.44,13.44,0,1,0,13.44,13.44A13.44,13.44,0,0,0,782.39,470.33ZM750,600.16a13.45,13.45,0,1,0,13.45,13.45A13.45,13.45,0,0,0,750,600.16ZM750,308a13.44,13.44,0,1,0,13.45,13.45A13.46,13.46,0,0,0,750,308ZM425.61,205a13.44,13.44,0,1,0-13.44-13.44A13.44,13.44,0,0,0,425.61,205Zm194.61,70.5A13.44,13.44,0,1,0,633.67,289,13.44,13.44,0,0,0,620.23,275.54Zm0-5.58a13.45,13.45,0,1,0-13.45-13.45A13.45,13.45,0,0,0,620.23,270Zm32.44,64.94a13.44,13.44,0,1,0-13.45-13.44A13.46,13.46,0,0,0,652.67,334.89ZM555.35,270a13.45,13.45,0,1,0-13.45-13.45A13.45,13.45,0,0,0,555.35,270Zm64.87-32.47A13.44,13.44,0,1,0,606.78,224,13.44,13.44,0,0,0,620.23,237.49Zm-32.43,38A13.44,13.44,0,1,0,601.24,289,13.44,13.44,0,0,0,587.8,275.54Zm-32.44-38A13.44,13.44,0,1,0,541.91,224,13.44,13.44,0,0,0,555.35,237.49Zm32.44,97.4a13.44,13.44,0,1,0-13.45-13.44A13.46,13.46,0,0,0,587.8,334.89Zm0-64.94a13.45,13.45,0,1,0-13.45-13.45A13.45,13.45,0,0,0,587.8,270Zm0-32.47A13.44,13.44,0,1,0,574.36,224,13.44,13.44,0,0,0,587.8,237.49Zm64.87,38A13.44,13.44,0,1,0,666.11,289,13.44,13.44,0,0,0,652.67,275.54Zm-32.44,59.35a13.44,13.44,0,1,0-13.45-13.44A13.47,13.47,0,0,0,620.23,334.89Zm32.44,200.35a13.44,13.44,0,1,0,13.44,13.44A13.44,13.44,0,0,0,652.67,535.24Zm0,59.34a13.43,13.43,0,1,0-13.43-13.43A13.43,13.43,0,0,0,652.67,594.58Zm-32.44-32.45a13.44,13.44,0,1,0-13.44-13.44A13.44,13.44,0,0,0,620.23,562.12Zm0,5.59a13.43,13.43,0,1,0,13.43,13.43A13.43,13.43,0,0,0,620.23,567.71Zm32.44-38a13.43,13.43,0,1,0-13.43-13.43A13.43,13.43,0,0,0,652.67,529.66Zm0-124.26a13.44,13.44,0,1,0,13.44,13.44A13.44,13.44,0,0,0,652.67,405.4Zm0-64.94a13.44,13.44,0,1,0,13.44,13.44A13.44,13.44,0,0,0,652.67,340.45Zm0,32.47a13.44,13.44,0,1,0,13.44,13.44A13.44,13.44,0,0,0,652.67,372.93Zm0,64.92a13.44,13.44,0,1,0,13.44,13.44A13.44,13.44,0,0,0,652.67,437.85Zm0,32.47a13.44,13.44,0,1,0,13.44,13.44A13.44,13.44,0,0,0,652.67,470.33ZM522.93,270a13.45,13.45,0,1,0-13.45-13.45A13.45,13.45,0,0,0,522.93,270ZM393.18,237.49A13.44,13.44,0,1,0,379.74,224,13.44,13.44,0,0,0,393.18,237.49Zm0-32.46a13.44,13.44,0,1,0-13.44-13.44A13.44,13.44,0,0,0,393.18,205Zm0,64.92a13.45,13.45,0,1,0-13.45-13.45A13.45,13.45,0,0,0,393.18,270Zm32.43,0a13.45,13.45,0,1,0-13.45-13.45A13.45,13.45,0,0,0,425.61,270Zm0-32.47A13.44,13.44,0,1,0,412.17,224,13.44,13.44,0,0,0,425.61,237.49Zm-64.87,97.4a13.44,13.44,0,1,0-13.44-13.44A13.46,13.46,0,0,0,360.75,334.89Zm259.48,167.9a13.43,13.43,0,1,0,13.43,13.43A13.43,13.43,0,0,0,620.23,502.79ZM360.75,237.48A13.44,13.44,0,1,0,347.31,224,13.45,13.45,0,0,0,360.75,237.48Zm0,64.94A13.44,13.44,0,1,0,347.31,289,13.45,13.45,0,0,0,360.75,302.42Zm0-32.46a13.45,13.45,0,1,0-13.44-13.44A13.45,13.45,0,0,0,360.75,270Zm162.18-32.47A13.44,13.44,0,1,0,509.48,224,13.44,13.44,0,0,0,522.93,237.49ZM490.48,205A13.44,13.44,0,1,0,477,191.59,13.44,13.44,0,0,0,490.48,205Zm0,32.46A13.44,13.44,0,1,0,477,224,13.44,13.44,0,0,0,490.48,237.49ZM522.93,205a13.44,13.44,0,1,0-13.44-13.44A13.44,13.44,0,0,0,522.93,205ZM360.75,367.33a13.44,13.44,0,1,0-13.44-13.42A13.44,13.44,0,0,0,360.75,367.33ZM490.48,270A13.45,13.45,0,1,0,477,256.51,13.45,13.45,0,0,0,490.48,270ZM458.05,205a13.44,13.44,0,1,0-13.45-13.45A13.43,13.43,0,0,0,458.05,205Zm0,38a13.45,13.45,0,1,0,13.45,13.45A13.45,13.45,0,0,0,458.05,243.06Zm0,91.83a13.44,13.44,0,1,0-13.45-13.44A13.43,13.43,0,0,0,458.05,334.89Zm0-124.28A13.44,13.44,0,1,0,471.49,224,13.44,13.44,0,0,0,458.05,210.61ZM143.45,668.1v-3a6.1,6.1,0,0,1-2-4.92v-7.89a8.11,8.11,0,0,0-6.44-8c4.34-1.16,6.22-4.13,6.22-8v-5.21c0-6.95-4.7-11.43-12.52-11.43H111.33v48.19h10.35V648.13h5.57c3,0,4.27,2.17,4.27,4.7v7.89c0,4.48,1.59,7.38,5.79,7.38Zm-12.23-31.4c0,2.89-1.45,4.27-4.13,4.27h-5.42V627.72h5.86c2.68,0,3.69,1.52,3.69,3.91Zm43.56,31.11v-9h-16.5V646.68h11.36v-7.81H158.28V628.3h16.5v-8.68H147.94v48.19Zm34.73-13.38c0-7-4.7-10.78-11.43-14.47-6.15-3.18-8.9-5.07-8.9-8.47,0-2.89,2-4.77,5-4.77,3.62,0,5.42,2.53,5.42,5.79V634h9.33v-2c0-7.67-5.86-13.6-14.69-13.6-9.84,0-15.12,6.65-15.12,14s6.15,11.22,11.94,14.33c5.57,2.89,8.32,5,8.32,8.46s-1.81,5.43-5.5,5.43-5.79-2.17-5.79-6.22V652.9h-9.48v2.46c0,8.25,6,13.67,15.48,13.67S209.51,662.24,209.51,654.42Zm35.24-16.35v-6.51c0-7.24-4.27-11.94-12.37-11.94H214.94v48.19h10.35V649.93h7.09C240.48,649.93,244.75,645.23,244.75,638.07Zm-9.91.15c0,2.6-1,4.05-3.69,4.05h-5.86V627.72h5.86c2.68,0,3.69,1.44,3.69,4.05Zm46.45,16.06V633.15c0-8.54-5.86-14.69-15.85-14.69s-15.85,6.15-15.85,14.69v21.13c0,8.61,5.93,14.76,15.85,14.76S281.29,662.89,281.29,654.28Zm-10.42.58c0,3.26-2,5.43-5.43,5.43s-5.36-2.17-5.36-5.43V632.57c0-3.26,2-5.42,5.36-5.42s5.43,2.17,5.43,5.42Zm49.05,13V619.62h-9.33v27.64l-3.91-7.89-10.35-19.75h-8.61v48.19h9.48V640.6l4.12,7.89L312,667.81Zm36.39-13.38c0-7-4.7-10.78-11.43-14.47-6.15-3.18-8.9-5.07-8.9-8.47,0-2.89,2-4.77,5-4.77,3.62,0,5.42,2.53,5.42,5.79V634h9.33v-2c0-7.67-5.86-13.6-14.69-13.6-9.84,0-15.12,6.65-15.12,14s6.15,11.22,11.94,14.33c5.57,2.89,8.32,5,8.32,8.46s-1.81,5.43-5.5,5.43-5.79-2.17-5.79-6.22V652.9h-9.48v2.46c0,8.25,6,13.67,15.48,13.67S356.32,662.24,356.32,654.42Zm32.27,13.38v-9h-16.5V646.68h11.36v-7.81H372.09V628.3h16.5v-8.68H361.74v48.19Zm46.52-39.36v-8.83H404v8.83h10.42v39.36h10.34V628.45Zm35,25.83V633.15c0-8.54-5.86-14.69-15.85-14.69s-15.85,6.15-15.85,14.69v21.13c0,8.61,5.93,14.76,15.85,14.76S470.06,662.89,470.06,654.28Zm-10.42.58c0,3.26-2,5.43-5.43,5.43s-5.35-2.17-5.35-5.43V632.57c0-3.26,2-5.42,5.35-5.42s5.43,2.17,5.43,5.42Zm48-.58V633.15c0-8.54-5.86-14.69-15.85-14.69S476,624.61,476,633.15v21.13c0,8.61,5.93,14.76,15.85,14.76S507.68,662.89,507.68,654.28Zm-10.42.58c0,3.26-2,5.43-5.43,5.43s-5.35-2.17-5.35-5.43V632.57c0-3.26,2-5.42,5.35-5.42s5.43,2.17,5.43,5.42Zm43.05,13v-8.9H524.47V619.62H514.12v48.19Zm37.18,0-11.72-27.93L577,619.62H566.5l-11.43,21.56V619.62H544.72v48.19h10.35V654l3.54-5.86,8,19.68Zm14.4,0V619.62H581.55v48.19Zm35.45-39.36v-8.83H596.24v8.83h10.42v39.36H617V628.45ZM173.89,491.79l-21-90.21H131.22l-21.13,90.21h18.15L132,473.91h18.69l3.79,17.88Zm-25.74-32.24H134.88l6.91-32.92Zm82.09-42.26V401.58h-49.3v90.21h19.37V454.4h21.81V438.83H200.31V417.29Zm68.41,75v-5.69c-2.44-2.17-3.79-5-3.79-9.21V462.67a15.18,15.18,0,0,0-12.05-14.9c8.13-2.17,11.65-7.72,11.65-15V423c0-13-8.8-21.4-23.43-21.4H238.51v90.21h19.37V454.94h10.43c5.55,0,8,4.06,8,8.8v14.76c0,8.4,3,13.82,10.84,13.82Zm-22.89-58.79c0,5.42-2.71,8-7.72,8H257.88V416.75h11c5,0,6.91,2.85,6.91,7.31Zm50.67,58.25V401.58H307.05v90.21Zm70.84-24V459H379.93v8.4c0,6.23-3.66,10.29-10.84,10.29s-10.84-4.2-10.84-9.89V425.68c0-5.82,3.66-10,10.84-10s10.84,4.07,10.84,10.29v8.4h17.34v-8.8c0-15-9.62-26.28-28.44-26.28-19.1,0-30.2,12.33-30.2,27.91v39c0,15.58,11.11,27.9,30.2,27.9C387.65,494.09,397.26,482.85,397.26,467.81Zm67.32,24-21-90.21H421.92l-21.13,90.21h18.15l3.79-17.88h18.69l3.79,17.88Zm-25.74-32.24H425.58l6.91-32.92Zm6,105.8v-12.6H412.17v12.6ZM165.49,575.91v-8.8H148.15v8.4c0,6.23-3.66,10.29-10.84,10.29s-10.84-4.2-10.84-9.89V533.78c0-5.82,3.66-10,10.84-10s10.84,4.07,10.84,10.29v8.4h17.34v-8.8c0-15-9.62-26.28-28.44-26.28-19.1,0-30.2,12.33-30.2,27.91v39c0,15.58,11.11,27.9,30.2,27.9C155.87,602.19,165.49,590.95,165.49,575.91Zm69-1.35V535c0-16-11-27.5-29.66-27.5S175.12,519,175.12,535v39.55c0,16.12,11.11,27.63,29.66,27.63S234.44,590.68,234.44,574.56Zm-19.5,1.08c0,6.1-3.66,10.16-10.16,10.16s-10-4.06-10-10.16V533.92c0-6.09,3.66-10.16,10-10.16s10.16,4.07,10.16,10.16Zm89.4-66h-19L272.24,571,259.1,509.68H239.19l23.16,90.21h18.42Zm26.28,90.21V509.68H311.26v90.21Zm71.93-26V536.77c0-15-10-27.09-28.72-27.09H343.76v90.21h30.07C392.53,599.89,402.55,589.05,402.55,573.88Zm-19.37-1.49c0,7.18-3.38,11.38-10.84,11.38h-9.21v-58h9.21c7.45,0,10.84,4.2,10.84,11.38Zm92.25,27.5V509.68h-9.89c0,4.2-2,8.13-8,8.13v82.08Zm70.57-24V533.65c0-15.71-9.89-26.14-27.63-26.14-17.07,0-27.36,10.43-27.36,26v13.14c0,11.24,7.45,19.78,20.59,19.78,8.67,0,13.41-3.79,16.8-8.26v18.15c0,6.37-3,10.56-10.43,10.56-7.18,0-11-3.52-11-10.7v-1.62H491.28v4.2c0,12.46,9.35,23.43,26.55,23.43S546,591.89,546,575.91Zm-17.61-30.75c0,5-3.52,9.08-10,9.08-6.77,0-9.89-3.93-9.89-9.08V531.75c0-5.15,3.52-9.08,9.89-9.08,6.77,0,10,4.47,10,9.62Z"/></svg>