<svg id="Layer_1" data-name="Layer 1" xmlns="http://www.w3.org/2000/svg" viewBox="0 0 1080 341.71"><defs><style>.cls-1{fill:#1d1d1b;}.cls-2{fill:#868686;}</style></defs><title>Artboard 1</title><path class="cls-1" d="M311.84,158.86V87.63h39.68v12.84H327.14v15.61h16.79v11.55H327.14v17.86h24.38v13.37Z"/><path class="cls-1" d="M384.25,100.68v58.19H369V100.68h-15.4v-13h46v13Z"/><path class="cls-1" d="M436.87,158.86V130.3H419.12v28.56h-15.3V87.63h15.3v29.52h17.75V87.63h15.3v71.23Z"/><path class="cls-1" d="M460.29,158.86V87.63h15.3v71.23Z"/><path class="cls-1" d="M506.49,160.68c-14.65,0-23.42-9.09-23.42-21.82V107.63c0-12.62,8.77-21.71,23.42-21.71s23.42,9.09,23.42,21.71v31.23C529.92,151.59,521.26,160.68,506.49,160.68Zm8-53.91c0-4.81-2.89-8-8-8s-7.91,3.21-7.91,8v32.94c0,4.81,2.89,8,7.91,8s8-3.21,8-8Z"/><path class="cls-1" d="M563.07,132.44H552.59v26.42h-15.3V87.63h25.78c12,0,18.29,7,18.29,17.65v9.63C581.36,125.49,575.05,132.44,563.07,132.44Zm3.64-26.85c0-3.85-1.5-6-5.46-6h-8.66v21.5h8.66c4,0,5.46-2.14,5.46-6Z"/><path class="cls-1" d="M587.14,158.86V87.63h15.29v71.23Z"/><path class="cls-1" d="M640.94,158.86l-3-14.12H623.18l-3,14.12H605.85l16.68-71.23h17.11l16.58,71.23Zm-10.06-51.45-5.46,26h10.48Z"/><path class="cls-1" d="M699.23,160.68c-15.08,0-23.85-9.73-23.85-22v-30.8c0-12.3,8.77-22,23.85-22,14.87,0,22.46,8.88,22.46,20.75v7H708v-6.63c0-4.92-2.89-8.13-8.56-8.13s-8.56,3.31-8.56,7.91v33.26c0,4.49,2.89,7.81,8.56,7.81s8.56-3.21,8.56-8.13V133h13.69v7C721.69,151.8,714.09,160.68,699.23,160.68Z"/><path class="cls-1" d="M750.56,160.68c-14.65,0-23.42-9.09-23.42-21.82V107.63c0-12.62,8.77-21.71,23.42-21.71S774,95,774,107.63v31.23C774,151.59,765.32,160.68,750.56,160.68Zm8-53.91c0-4.81-2.89-8-8-8s-7.91,3.21-7.91,8v32.94c0,4.81,2.89,8,7.91,8s8-3.21,8-8Z"/><path class="cls-1" d="M808.43,158.86H793.88L775.59,87.63h15.72l10.37,48.45,10.38-48.45h15Z"/><path class="cls-1" d="M830.35,158.86V87.63h15.29v71.23Z"/><path class="cls-1" d="M877.62,158.86H853.88V87.63h23.75c14.76,0,22.67,9.52,22.67,21.39v29.31C900.3,150.3,892.38,158.86,877.62,158.86ZM885,109.34c0-5.67-2.68-9-8.56-9h-7.28v45.78h7.28c5.88,0,8.56-3.32,8.56-9Z"/><path class="cls-1" d="M905.75,131.59v-9.95h25.77v9.95Z"/><path class="cls-1" d="M939.44,158.86V94c4.71,0,6.31-3.1,6.31-6.42h7.81v71.23Z"/><path class="cls-1" d="M984.89,160.68c-13.58,0-21-8.66-21-18.5v-3.32h12.41v1.28c0,5.67,3,8.45,8.67,8.45,5.88,0,8.24-3.32,8.24-8.34V125.92c-2.67,3.53-6.42,6.52-13.26,6.52-10.38,0-16.26-6.74-16.26-15.61V106.45c0-12.3,8.13-20.54,21.6-20.54,14,0,21.82,8.24,21.82,20.64v33.37C1007.14,152.55,998.37,160.68,984.89,160.68Zm8.34-55.19c0-4.06-2.57-7.59-7.91-7.59-5,0-7.81,3.1-7.81,7.16v10.59c0,4.06,2.46,7.17,7.81,7.17,5.13,0,7.91-3.21,7.91-7.17Z"/><path class="cls-2" d="M350.88,255c-8,0-10.8-2.25-10.8-9.63v-13.9c0-4.92-2.25-8.24-7.38-8.24H322.64v31H312.48V183.07h20.64c11.55,0,16.68,5.77,16.68,15.94v7.81c0,7-2.35,11.12-9.2,12.51,6.74,1.07,9.52,6.74,9.52,12.41v12.94c0,1.92.86,2.78,3,2.78V255Zm-11.23-56.26c0-4.06-1.71-7-6.52-7H322.64v23.75h9.41c4.92,0,7.6-2.78,7.6-8.13Z"/><path class="cls-2" d="M358.58,254.3V183.07h33.15v9.2h-23.1v20.32h16.69v8.77H368.63V245.1h23.1v9.2Z"/><path class="cls-2" d="M415.37,255.9c-11.77,0-19.57-7.7-19.57-18.08v-4.92h10.05v3.32c0,7.27,3.32,11,9.63,11s9.41-3.74,9.41-9.2c0-6.31-2.78-10.27-11.77-15.94-8-5.13-16.47-12.09-16.47-22.36s6.74-18.18,18.82-18.18c11.55,0,18.93,7.59,18.93,18.08v4.6h-9.63v-3.32c0-6-2.89-10.7-9.63-10.7-5.56,0-8.45,3.32-8.45,8.13,0,6.31,2.89,9.63,13.16,16.26s15.08,12.73,15.08,21.93C434.94,248.31,426.6,255.9,415.37,255.9Z"/><path class="cls-2" d="M462.54,225.74H451.95V254.3H441.9V183.07h20.64c11.55,0,16.69,6.2,16.69,16.47v9.84C479.23,219.43,474.09,225.74,462.54,225.74Zm6.52-26.53c0-4.71-1.71-7.38-6.42-7.38h-10.7v25.24h10.7c4.7,0,6.42-2.78,6.42-7.38Z"/><path class="cls-2" d="M504.68,255.9c-13.37,0-19.9-8.77-19.9-20.43V201.89c0-11.55,6.53-20.32,19.9-20.32s19.89,8.77,19.89,20.32v33.58C524.57,247.13,518.15,255.9,504.68,255.9ZM514.52,201c0-6.1-3.21-10.48-9.84-10.48s-9.73,4.38-9.73,10.48v35.3c0,6.1,3.1,10.48,9.73,10.48s9.84-4.38,9.84-10.48Z"/><path class="cls-2" d="M566.17,254.3l-17.65-34.65-6-12.51V254.3h-9.63V183.07h8.24l16.9,35.3,5.67,12.51V183.07h9.63V254.3Z"/><path class="cls-2" d="M599.65,255.9c-11.76,0-19.57-7.7-19.57-18.08v-4.92h10.06v3.32c0,7.27,3.31,11,9.63,11s9.41-3.74,9.41-9.2c0-6.31-2.78-10.27-11.77-15.94-8-5.13-16.47-12.09-16.47-22.36s6.74-18.18,18.82-18.18c11.55,0,18.93,7.59,18.93,18.08v4.6h-9.63v-3.32c0-6-2.88-10.7-9.63-10.7-5.56,0-8.45,3.32-8.45,8.13,0,6.31,2.89,9.63,13.16,16.26s15.08,12.73,15.08,21.93C619.23,248.31,610.88,255.9,599.65,255.9Z"/><path class="cls-2" d="M626.18,254.3V183.07h33.15v9.2h-23.1v20.32h16.69v8.77H636.23V245.1h23.1v9.2Z"/><path class="cls-2" d="M701.9,192.37V254.3H691.74V192.37H677.08v-9.3h39.36v9.3Z"/><path class="cls-2" d="M721.47,254.3V183.07h33.16v9.2H731.52v20.32h16.69v8.77H731.52V245.1h23.11v9.2Z"/><path class="cls-2" d="M789.07,254.3l-3.74-17.43h-15.4l-3.74,17.43h-9.84l16.15-71.23h10.69l16.15,71.23ZM777.62,199l-5.89,29.2H783.5Z"/><path class="cls-2" d="M847.89,254.3V198.79L845,212.37l-9.73,41.93h-10l-9.52-41.93-3-13.58V254.3h-9V183.07h14.12l9.73,44.49,2.89,13.58,2.89-13.69L843,183.07h14.12V254.3Z"/><path d="M169.5,131.81a31.29,31.29,0,1,0,31.29,31.29A31.34,31.34,0,0,0,169.5,131.81Zm0,55.37a24.08,24.08,0,1,1,24-24.08A24.09,24.09,0,0,1,169.5,187.19Zm0-55.37a31.29,31.29,0,1,0,31.29,31.29A31.34,31.34,0,0,0,169.5,131.81Zm0,55.37a24.08,24.08,0,1,1,24-24.08A24.09,24.09,0,0,1,169.5,187.19Zm0-55.37a31.29,31.29,0,1,0,31.29,31.29A31.34,31.34,0,0,0,169.5,131.81Zm0,55.37a24.08,24.08,0,1,1,24-24.08A24.09,24.09,0,0,1,169.5,187.19Zm0-55.37a31.29,31.29,0,1,0,31.29,31.29A31.34,31.34,0,0,0,169.5,131.81Zm0,55.37a24.08,24.08,0,1,1,24-24.08A24.09,24.09,0,0,1,169.5,187.19Zm0-55.37a31.29,31.29,0,1,0,31.29,31.29A31.34,31.34,0,0,0,169.5,131.81Zm0,55.37a24.08,24.08,0,1,1,24-24.08A24.09,24.09,0,0,1,169.5,187.19Zm0-55.37a31.29,31.29,0,1,0,31.29,31.29A31.34,31.34,0,0,0,169.5,131.81Zm0,55.37a24.08,24.08,0,1,1,24-24.08A24.09,24.09,0,0,1,169.5,187.19Zm0-55.37a31.29,31.29,0,1,0,31.29,31.29A31.34,31.34,0,0,0,169.5,131.81Zm0,55.37a24.08,24.08,0,1,1,24-24.08A24.09,24.09,0,0,1,169.5,187.19Zm0-55.37a31.29,31.29,0,1,0,31.29,31.29A31.34,31.34,0,0,0,169.5,131.81Zm0,55.37a24.08,24.08,0,1,1,24-24.08A24.09,24.09,0,0,1,169.5,187.19Zm0-119.77L86.77,95v59.89A127.68,127.68,0,0,0,169.5,274.27a127.73,127.73,0,0,0,82.73-119.36V95Zm33.49,50,3.88-3.88L219,125.74l-3.84,3.88L211,125.46l-10.2,10.23-3.88-3.88,10.23-10.23Zm-42.09-15.79h17.19v5.46h-5.85v14.46h-5.46V107.13h-5.88Zm-28.75,11.91,3.84,3.88-4.13,4.13,10.23,10.23-3.88,3.88L128,125.46l-4.13,4.16L120,125.74Zm-18.62,58.14h-5.46V154.53h5.46v5.85H128v5.46H113.52Zm22.46,37-3.84,3.88L120,200.47l3.88-3.88,4.13,4.16,10.23-10.23,3.88,3.88-10.23,10.23Zm42.09,15.79H160.89v-5.46h5.88V204.63h5.46v14.46h5.85Zm-8.58-24.68a36.76,36.76,0,1,1,36.76-36.76A36.8,36.8,0,0,1,169.5,199.86Zm37.36,12.77L203,208.76l4.16-4.13L196.92,194.4l3.88-3.88L211,200.75l4.16-4.16,3.84,3.88Zm24.08-40.92h-5.5v-5.88H211v-5.46h14.46v-5.85h5.5Zm-61.44-39.9a31.29,31.29,0,1,0,31.29,31.29A31.34,31.34,0,0,0,169.5,131.81Zm0,55.37a24.08,24.08,0,1,1,24-24.08A24.09,24.09,0,0,1,169.5,187.19Zm0-55.37a31.29,31.29,0,1,0,31.29,31.29A31.34,31.34,0,0,0,169.5,131.81Zm0,55.37a24.08,24.08,0,1,1,24-24.08A24.09,24.09,0,0,1,169.5,187.19Zm0-55.37a31.29,31.29,0,1,0,31.29,31.29A31.34,31.34,0,0,0,169.5,131.81Zm0,55.37a24.08,24.08,0,1,1,24-24.08A24.09,24.09,0,0,1,169.5,187.19Zm0-55.37a31.29,31.29,0,1,0,31.29,31.29A31.34,31.34,0,0,0,169.5,131.81Zm0,55.37a24.08,24.08,0,1,1,24-24.08A24.09,24.09,0,0,1,169.5,187.19Zm0-55.37a31.29,31.29,0,1,0,31.29,31.29A31.34,31.34,0,0,0,169.5,131.81Zm0,55.37a24.08,24.08,0,1,1,24-24.08A24.09,24.09,0,0,1,169.5,187.19Zm0-55.37a31.29,31.29,0,1,0,31.29,31.29A31.34,31.34,0,0,0,169.5,131.81Zm0,55.37a24.08,24.08,0,1,1,24-24.08A24.09,24.09,0,0,1,169.5,187.19Zm0-55.37a31.29,31.29,0,1,0,31.29,31.29A31.34,31.34,0,0,0,169.5,131.81Zm0,55.37a24.08,24.08,0,1,1,24-24.08A24.09,24.09,0,0,1,169.5,187.19Zm0-55.37a31.29,31.29,0,1,0,31.29,31.29A31.34,31.34,0,0,0,169.5,131.81Zm0,55.37a24.08,24.08,0,1,1,24-24.08A24.09,24.09,0,0,1,169.5,187.19Zm0-55.37a31.29,31.29,0,1,0,31.29,31.29A31.34,31.34,0,0,0,169.5,131.81Zm0,55.37a24.08,24.08,0,1,1,24-24.08A24.09,24.09,0,0,1,169.5,187.19Z"/><path d="M169.5,50.74,72.86,83v69.92A146.72,146.72,0,0,0,169.5,291a146.73,146.73,0,0,0,96.61-138.07V83Zm89.08,104.17a134,134,0,0,1-88,125.71l-1.08.41-1.08-.41a134,134,0,0,1-88-125.71V90.45l89.08-29.7,89.08,29.7Z"/></svg>